<?xml version="1.0" encoding="UTF-8" standalone="no"?>
<!DOCTYPE svg PUBLIC "-//W3C//DTD SVG 20010904//EN"
              "http://www.w3.org/TR/2001/REC-SVG-20010904/DTD/svg10.dtd">

<svg xmlns="http://www.w3.org/2000/svg"
     width="16.7111in" height="4.06667in"
     viewBox="0 0 1504 366">
  <path id="Imported Path"
        fill="#ca5b32" stroke="black" stroke-width="1"
        d="M 1503.40,187.71
           C 1503.40,198.31 1501.63,208.04 1498.09,216.92
             1494.56,225.78 1489.59,233.41 1483.19,239.81
             1476.80,246.20 1469.11,251.17 1460.11,254.71
             1451.11,258.24 1441.11,260.00 1430.11,260.00
             1430.11,260.00 1375.00,260.00 1375.00,260.00
             1375.00,260.00 1375.00,115.40 1375.00,115.40
             1375.00,115.40 1430.11,115.40 1430.11,115.40
             1441.11,115.40 1451.11,117.18 1460.11,120.75
             1469.11,124.32 1476.80,129.29 1483.19,135.67
             1489.59,142.03 1494.56,149.64 1498.09,158.50
             1501.63,167.36 1503.40,177.10 1503.40,187.71 Z
           M 1475.79,187.71
           C 1475.79,179.77 1474.74,172.65 1472.65,166.35
             1470.55,160.05 1467.51,154.72 1463.54,150.35
             1459.59,145.98 1454.78,142.63 1449.15,140.29
             1443.51,137.96 1437.16,136.79 1430.11,136.79
             1430.11,136.79 1402.00,136.79 1402.00,136.79
             1402.00,136.79 1402.00,238.60 1402.00,238.60
             1402.00,238.60 1430.11,238.60 1430.11,238.60
             1437.16,238.60 1443.51,237.44 1449.15,235.10
             1454.78,232.77 1459.59,229.43 1463.54,225.06
             1467.51,220.69 1470.55,215.35 1472.65,209.06
             1474.74,202.76 1475.79,195.64 1475.79,187.71 Z
           M 1475.79,187.71M 1284.69,238.29
           C 1289.90,238.29 1294.55,237.43 1298.65,235.71
             1302.74,233.97 1306.19,231.54 1308.98,228.42
             1311.78,225.28 1313.94,221.47 1315.44,217.00
             1316.94,212.53 1317.69,207.53 1317.69,202.00
             1317.69,202.00 1317.69,115.40 1317.69,115.40
             1317.69,115.40 1344.61,115.40 1344.61,115.40
             1344.61,115.40 1344.61,202.00 1344.61,202.00
             1344.61,210.60 1343.22,218.55 1340.44,225.85
             1337.68,233.15 1333.71,239.45 1328.55,244.75
             1323.38,250.06 1317.09,254.20 1309.69,257.17
             1302.30,260.13 1293.97,261.60 1284.69,261.60
             1275.36,261.60 1266.99,260.13 1259.59,257.17
             1252.20,254.20 1245.92,250.06 1240.75,244.75
             1235.59,239.45 1231.61,233.15 1228.84,225.85
             1226.07,218.55 1224.69,210.60 1224.69,202.00
             1224.69,202.00 1224.69,115.40 1224.69,115.40
             1224.69,115.40 1251.61,115.40 1251.61,115.40
             1251.61,115.40 1251.61,201.90 1251.61,201.90
             1251.61,207.44 1252.36,212.45 1253.86,216.92
             1255.36,221.38 1257.52,225.19 1260.36,228.35
             1263.19,231.52 1266.65,233.97 1270.75,235.71
             1274.85,237.43 1279.49,238.29 1284.69,238.29 Z
           M 1284.69,238.29M 1141.59,184.21
           C 1146.66,184.21 1151.08,183.58 1154.84,182.31
             1158.62,181.04 1161.72,179.29 1164.15,177.06
             1166.58,174.83 1168.39,172.18 1169.59,169.10
             1170.80,166.04 1171.40,162.67 1171.40,159.00
             1171.40,151.67 1168.99,146.04 1164.15,142.10
             1159.32,138.18 1151.93,136.21 1142.01,136.21
             1142.01,136.21 1124.80,136.21 1124.80,136.21
             1124.80,136.21 1124.80,184.21 1124.80,184.21
             1124.80,184.21 1141.59,184.21 1141.59,184.21 Z
           M 1210.80,260.00
           C 1210.80,260.00 1186.51,260.00 1186.51,260.00
             1181.89,260.00 1178.56,258.20 1176.51,254.60
             1176.51,254.60 1146.09,208.29 1146.09,208.29
             1144.97,206.57 1143.72,205.34 1142.34,204.60
             1140.98,203.87 1138.97,203.50 1136.30,203.50
             1136.30,203.50 1124.80,203.50 1124.80,203.50
             1124.80,203.50 1124.80,260.00 1124.80,260.00
             1124.80,260.00 1097.90,260.00 1097.90,260.00
             1097.90,260.00 1097.90,115.40 1097.90,115.40
             1097.90,115.40 1142.01,115.40 1142.01,115.40
             1151.80,115.40 1160.21,116.42 1167.24,118.46
             1174.28,120.49 1180.05,123.33 1184.55,127.00
             1189.05,130.67 1192.36,135.05 1194.49,140.15
             1196.62,145.24 1197.70,150.86 1197.70,157.00
             1197.70,161.86 1196.98,166.46 1195.55,170.79
             1194.12,175.13 1192.05,179.06 1189.34,182.60
             1186.64,186.14 1183.31,189.23 1179.34,191.90
             1175.38,194.56 1170.87,196.67 1165.80,198.21
             1167.53,199.21 1169.13,200.39 1170.59,201.75
             1172.06,203.11 1173.39,204.73 1174.59,206.60
             1174.59,206.60 1210.80,260.00 1210.80,260.00 Z
           M 1210.80,260.00M 1064.90,225.90
           C 1066.36,225.90 1067.67,226.47 1068.79,227.60
             1068.79,227.60 1079.40,239.10 1079.40,239.10
             1073.53,246.37 1066.32,251.94 1057.75,255.81
             1049.18,259.68 1038.90,261.60 1026.90,261.60
             1016.16,261.60 1006.50,259.77 997.94,256.10
             989.38,252.44 982.07,247.34 976.00,240.81
             969.93,234.27 965.28,226.47 962.04,217.40
             958.82,208.33 957.21,198.43 957.21,187.71
             957.21,176.83 958.94,166.89 962.40,157.85
             965.86,148.81 970.75,141.03 977.04,134.50
             983.34,127.97 990.86,122.89 999.60,119.25
             1008.34,115.61 1018.00,113.79 1028.60,113.79
             1039.13,113.79 1048.48,115.53 1056.65,119.00
             1064.81,122.47 1071.76,127.01 1077.50,132.60
             1077.50,132.60 1068.50,145.10 1068.50,145.10
             1067.97,145.90 1067.29,146.60 1066.46,147.21
             1065.62,147.81 1064.47,148.10 1063.00,148.10
             1062.00,148.10 1060.96,147.82 1059.90,147.25
             1058.82,146.68 1057.66,145.98 1056.40,145.15
             1055.13,144.31 1053.67,143.40 1052.00,142.40
             1050.33,141.40 1048.40,140.48 1046.19,139.65
             1043.99,138.81 1041.44,138.12 1038.54,137.56
             1035.65,136.99 1032.30,136.71 1028.50,136.71
             1022.03,136.71 1016.11,137.86 1010.75,140.17
             1005.38,142.46 1000.77,145.79 996.90,150.17
             993.03,154.53 990.03,159.86 987.90,166.17
             985.77,172.46 984.71,179.64 984.71,187.71
             984.71,195.83 985.85,203.06 988.15,209.40
             990.45,215.73 993.57,221.06 997.50,225.40
             1001.43,229.73 1006.06,233.05 1011.40,235.35
             1016.73,237.65 1022.46,238.79 1028.60,238.79
             1032.27,238.79 1035.58,238.60 1038.54,238.21
             1041.51,237.81 1044.25,237.18 1046.75,236.31
             1049.25,235.44 1051.61,234.32 1053.85,232.96
             1056.09,231.58 1058.30,229.90 1060.50,227.90
             1061.17,227.30 1061.86,226.82 1062.60,226.46
             1063.34,226.08 1064.10,225.90 1064.90,225.90 Z
           M 1064.90,225.90M 887.89,157.40
           C 887.89,157.40 887.89,260.00 887.89,260.00
             887.89,260.00 863.10,260.00 863.10,260.00
             863.10,260.00 863.10,157.40 863.10,157.40
             863.10,157.40 887.89,157.40 887.89,157.40 Z
           M 891.31,127.50
           C 891.31,129.64 890.87,131.64 890.00,133.50
             889.13,135.36 887.98,136.99 886.54,138.40
             885.10,139.80 883.42,140.92 881.50,141.75
             879.56,142.58 877.50,143.00 875.31,143.00
             873.17,143.00 871.15,142.58 869.25,141.75
             867.34,140.92 865.69,139.80 864.29,138.40
             862.90,136.99 861.79,135.36 860.95,133.50
             860.12,131.64 859.70,129.64 859.70,127.50
             859.70,125.31 860.12,123.24 860.95,121.31
             861.79,119.37 862.90,117.70 864.29,116.31
             865.69,114.91 867.34,113.79 869.25,112.96
             871.15,112.13 873.17,111.71 875.31,111.71
             877.50,111.71 879.56,112.13 881.50,112.96
             883.42,113.79 885.10,114.91 886.54,116.31
             887.98,117.70 889.13,119.37 890.00,121.31
             890.87,123.24 891.31,125.31 891.31,127.50 Z
           M 891.31,127.50M 837.61,111.40
           C 837.61,111.40 837.61,260.00 837.61,260.00
             837.61,260.00 812.90,260.00 812.90,260.00
             812.90,260.00 812.90,111.40 812.90,111.40
             812.90,111.40 837.61,111.40 837.61,111.40 Z
           M 837.61,111.40M 765.30,216.21
           C 758.17,216.54 752.17,217.16 747.30,218.06
             742.43,218.95 738.53,220.10 735.59,221.50
             732.65,222.91 730.56,224.54 729.30,226.42
             728.03,228.28 727.40,230.31 727.40,232.50
             727.40,236.83 728.68,239.94 731.25,241.81
             733.82,243.68 737.17,244.60 741.30,244.60
             746.36,244.60 750.74,243.69 754.44,241.85
             758.15,240.02 761.76,237.24 765.30,233.50
             765.30,233.50 765.30,216.21 765.30,216.21 Z
           M 708.69,171.71
           C 720.49,160.91 734.70,155.50 751.30,155.50
             757.30,155.50 762.66,156.49 767.40,158.46
             772.13,160.42 776.13,163.15 779.40,166.65
             782.66,170.15 785.14,174.33 786.84,179.21
             788.55,184.07 789.40,189.41 789.40,195.21
             789.40,195.21 789.40,260.00 789.40,260.00
             789.40,260.00 778.19,260.00 778.19,260.00
             775.86,260.00 774.06,259.66 772.80,258.96
             771.53,258.25 770.53,256.83 769.80,254.71
             769.80,254.71 767.61,247.29 767.61,247.29
             764.99,249.63 762.45,251.68 759.98,253.46
             757.52,255.22 754.96,256.71 752.30,257.92
             749.63,259.11 746.77,260.02 743.73,260.65
             740.70,261.28 737.36,261.60 733.69,261.60
             729.36,261.60 725.36,261.02 721.69,259.85
             718.02,258.69 714.86,256.94 712.19,254.60
             709.52,252.27 707.45,249.38 705.98,245.92
             704.52,242.45 703.80,238.41 703.80,233.79
             703.80,231.20 704.22,228.62 705.09,226.06
             705.96,223.49 707.38,221.04 709.34,218.71
             711.31,216.38 713.86,214.18 716.98,212.10
             720.12,210.04 723.97,208.24 728.55,206.71
             733.11,205.17 738.43,203.92 744.50,202.96
             750.57,201.99 757.50,201.41 765.30,201.21
             765.30,201.21 765.30,195.21 765.30,195.21
             765.30,188.33 763.83,183.25 760.90,179.96
             757.97,176.66 753.73,175.00 748.19,175.00
             744.19,175.00 740.87,175.47 738.23,176.40
             735.61,177.33 733.30,178.38 731.30,179.54
             729.30,180.71 727.47,181.77 725.84,182.71
             724.21,183.64 722.40,184.10 720.40,184.10
             718.66,184.10 717.19,183.66 715.98,182.75
             714.79,181.85 713.83,180.80 713.11,179.60
             713.11,179.60 708.69,171.71 708.69,171.71 Z
           M 708.69,171.71M 623.00,168.40
           C 627.00,164.66 631.39,161.63 636.18,159.29
             640.99,156.96 646.63,155.79 653.10,155.79
             658.69,155.79 663.66,156.74 668.00,158.65
             672.33,160.55 675.94,163.22 678.85,166.65
             681.75,170.08 683.95,174.18 685.45,178.96
             686.95,183.72 687.70,188.97 687.70,194.71
             687.70,194.71 687.70,260.00 687.70,260.00
             687.70,260.00 663.00,260.00 663.00,260.00
             663.00,260.00 663.00,194.71 663.00,194.71
             663.00,188.43 661.56,183.58 658.68,180.15
             655.82,176.72 651.46,175.00 645.60,175.00
             641.33,175.00 637.33,175.97 633.60,177.90
             629.86,179.83 626.33,182.46 623.00,185.79
             623.00,185.79 623.00,260.00 623.00,260.00
             623.00,260.00 598.31,260.00 598.31,260.00
             598.31,260.00 598.31,111.40 598.31,111.40
             598.31,111.40 623.00,111.40 623.00,111.40
             623.00,111.40 623.00,168.40 623.00,168.40 Z
           M 623.00,168.40M 558.10,261.60
           C 549.16,261.60 542.31,259.09 537.55,254.06
             532.79,249.02 530.41,242.07 530.41,233.21
             530.41,233.21 530.41,175.90 530.41,175.90
             530.41,175.90 519.91,175.90 519.91,175.90
             518.57,175.90 517.43,175.47 516.49,174.60
             515.56,173.73 515.10,172.43 515.10,170.71
             515.10,170.71 515.10,160.90 515.10,160.90
             515.10,160.90 531.60,158.21 531.60,158.21
             531.60,158.21 536.80,130.21 536.80,130.21
             537.14,128.88 537.77,127.84 538.70,127.10
             539.63,126.37 540.83,126.00 542.30,126.00
             542.30,126.00 555.10,126.00 555.10,126.00
             555.10,126.00 555.10,158.29 555.10,158.29
             555.10,158.29 582.49,158.29 582.49,158.29
             582.49,158.29 582.49,175.90 582.49,175.90
             582.49,175.90 555.10,175.90 555.10,175.90
             555.10,175.90 555.10,231.50 555.10,231.50
             555.10,234.70 555.88,237.20 557.45,239.00
             559.02,240.81 561.17,241.71 563.91,241.71
             565.43,241.71 566.71,241.53 567.74,241.17
             568.78,240.79 569.68,240.41 570.45,240.00
             571.21,239.60 571.89,239.22 572.49,238.85
             573.10,238.48 573.71,238.29 574.30,238.29
             575.04,238.29 575.64,238.48 576.10,238.85
             576.56,239.22 577.06,239.77 577.60,240.50
             577.60,240.50 584.99,252.50 584.99,252.50
             581.39,255.50 577.26,257.77 572.60,259.31
             567.93,260.84 563.10,261.60 558.10,261.60 Z
           M 558.10,261.60M 495.10,141.71
           C 494.30,143.10 493.44,144.11 492.54,144.75
             491.65,145.39 490.54,145.71 489.21,145.71
             487.80,145.71 486.28,145.20 484.65,144.17
             483.02,143.13 481.07,141.97 478.79,140.71
             476.53,139.43 473.87,138.28 470.83,137.25
             467.80,136.22 464.23,135.71 460.10,135.71
             456.36,135.71 453.09,136.16 450.29,137.06
             447.50,137.95 445.15,139.20 443.25,140.81
             441.34,142.41 439.93,144.33 439.00,146.56
             438.07,148.79 437.60,151.23 437.60,153.90
             437.60,157.30 438.55,160.14 440.44,162.40
             442.34,164.66 444.86,166.60 448.00,168.21
             451.14,169.81 454.71,171.24 458.71,172.50
             462.71,173.77 466.80,175.12 471.00,176.56
             475.19,177.99 479.29,179.66 483.29,181.56
             487.29,183.45 490.86,185.85 494.00,188.75
             497.14,191.66 499.65,195.21 501.54,199.42
             503.44,203.61 504.40,208.71 504.40,214.71
             504.40,221.24 503.28,227.35 501.04,233.06
             498.82,238.76 495.55,243.72 491.25,247.96
             486.94,252.18 481.69,255.52 475.50,257.96
             469.30,260.39 462.21,261.60 454.21,261.60
             449.59,261.60 445.05,261.15 440.58,260.25
             436.12,259.35 431.84,258.06 427.75,256.40
             423.65,254.73 419.80,252.73 416.19,250.40
             412.59,248.06 409.40,245.47 406.60,242.60
             406.60,242.60 414.50,229.71 414.50,229.71
             415.17,228.77 416.03,227.98 417.10,227.35
             418.17,226.72 419.30,226.40 420.50,226.40
             422.17,226.40 423.96,227.08 425.90,228.46
             427.82,229.82 430.12,231.33 432.79,233.00
             435.46,234.67 438.57,236.19 442.15,237.56
             445.71,238.93 450.00,239.60 455.00,239.60
             462.67,239.60 468.59,237.79 472.79,234.17
             477.00,230.53 479.10,225.31 479.10,218.50
             479.10,214.70 478.15,211.60 476.25,209.21
             474.34,206.81 471.82,204.79 468.69,203.17
             465.56,201.53 462.00,200.14 458.00,199.00
             454.00,197.86 449.93,196.63 445.79,195.29
             441.67,193.96 437.60,192.36 433.60,190.50
             429.60,188.64 426.03,186.21 422.90,183.21
             419.77,180.21 417.26,176.46 415.35,171.96
             413.45,167.46 412.50,161.91 412.50,155.29
             412.50,150.03 413.55,144.90 415.65,139.90
             417.74,134.90 420.79,130.47 424.79,126.60
             428.79,122.73 433.72,119.63 439.58,117.29
             445.46,114.96 452.19,113.79 459.79,113.79
             468.33,113.79 476.20,115.13 483.40,117.79
             490.60,120.46 496.73,124.20 501.79,129.00
             501.79,129.00 495.10,141.71 495.10,141.71 Z
           M 495.10,141.71M 268.21,338.59
           C 268.21,338.59 268.21,268.15 268.21,268.15
             268.21,268.15 206.51,232.41 206.51,232.41
             206.51,232.41 206.51,302.85 206.51,302.85
             206.51,302.85 268.21,338.59 268.21,338.59 Z
           M 288.78,338.59
           C 288.78,338.59 350.49,302.85 350.49,302.85
             350.49,302.85 350.49,232.41 350.49,232.41
             350.49,232.41 288.78,268.15 288.78,268.15
             288.78,268.15 288.78,338.59 288.78,338.59 Z
           M 278.50,250.40
           C 278.50,250.40 339.43,215.18 339.43,215.18
             339.43,215.18 278.50,179.95 278.50,179.95
             278.50,179.95 217.56,215.18 217.56,215.18
             217.56,215.18 278.50,250.40 278.50,250.40 Z
           M 196.22,320.85
           C 192.96,318.97 190.44,316.48 188.64,313.40
             186.84,310.31 185.94,306.89 185.94,303.11
             185.94,303.11 185.94,221.35 185.94,221.35
             185.94,217.58 186.84,214.15 188.64,211.07
             190.44,207.98 192.96,205.49 196.22,203.61
             196.22,203.61 268.21,162.21 268.21,162.21
             271.47,160.33 274.90,159.39 278.50,159.39
             282.10,159.39 285.53,160.33 288.78,162.21
             288.78,162.21 360.78,203.61 360.78,203.61
             364.03,205.49 366.56,207.98 368.36,211.07
             370.16,214.15 371.06,217.58 371.06,221.35
             371.06,221.35 371.06,303.11 371.06,303.11
             371.06,306.89 370.16,310.31 368.36,313.40
             366.56,316.48 364.03,318.97 360.78,320.85
             360.78,320.85 288.78,362.25 288.78,362.25
             285.53,364.14 282.10,365.08 278.50,365.08
             274.90,365.08 271.47,364.14 268.21,362.25
             268.21,362.25 196.22,320.85 196.22,320.85 Z
           M 278.50,262.23 278.50,262.23 278.50,262.23 278.50,262.23
           M 278.50,262.23M 83.13,338.59
           C 83.13,338.59 83.13,268.15 83.13,268.15
             83.13,268.15 21.42,232.41 21.42,232.41
             21.42,232.41 21.42,302.85 21.42,302.85
             21.42,302.85 83.13,338.59 83.13,338.59 Z
           M 103.70,338.59
           C 103.70,338.59 165.41,302.85 165.41,302.85
             165.41,302.85 165.41,232.41 165.41,232.41
             165.41,232.41 103.70,268.15 103.70,268.15
             103.70,268.15 103.70,338.59 103.70,338.59 Z
           M 93.42,250.40
           C 93.42,250.40 154.35,215.18 154.35,215.18
             154.35,215.18 93.42,179.95 93.42,179.95
             93.42,179.95 32.48,215.18 32.48,215.18
             32.48,215.18 93.42,250.40 93.42,250.40 Z
           M 11.14,320.85
           C 7.88,318.97 5.35,316.48 3.55,313.40
             1.76,310.31 0.85,306.89 0.85,303.11
             0.85,303.11 0.85,221.35 0.85,221.35
             0.85,217.58 1.76,214.15 3.55,211.07
             5.35,207.98 7.88,205.49 11.14,203.61
             11.14,203.61 83.13,162.21 83.13,162.21
             86.39,160.33 89.82,159.39 93.42,159.39
             97.02,159.39 100.44,160.33 103.70,162.21
             103.70,162.21 175.69,203.61 175.69,203.61
             178.95,205.49 181.47,207.98 183.28,211.07
             185.08,214.15 185.97,217.58 185.97,221.35
             185.97,221.35 185.97,303.11 185.97,303.11
             185.97,306.89 185.08,310.31 183.28,313.40
             181.47,316.48 178.95,318.97 175.69,320.85
             175.69,320.85 103.70,362.25 103.70,362.25
             100.44,364.14 97.02,365.08 93.42,365.08
             89.82,365.08 86.39,364.14 83.13,362.25
             83.13,362.25 11.14,320.85 11.14,320.85 Z
           M 93.42,262.23 93.42,262.23 93.42,262.23 93.42,262.23
           M 93.42,262.23M 175.69,180.08
           C 175.69,180.08 175.69,109.64 175.69,109.64
             175.69,109.64 113.98,73.90 113.98,73.90
             113.98,73.90 113.98,144.34 113.98,144.34
             113.98,144.34 175.69,180.08 175.69,180.08 Z
           M 196.26,180.08
           C 196.26,180.08 257.97,144.34 257.97,144.34
             257.97,144.34 257.97,73.90 257.97,73.90
             257.97,73.90 196.26,109.64 196.26,109.64
             196.26,109.64 196.26,180.08 196.26,180.08 Z
           M 185.97,91.90
           C 185.97,91.90 246.91,56.67 246.91,56.67
             246.91,56.67 185.97,21.44 185.97,21.44
             185.97,21.44 125.04,56.67 125.04,56.67
             125.04,56.67 185.97,91.90 185.97,91.90 Z
           M 103.70,162.34
           C 100.44,160.46 97.92,157.97 96.11,154.89
             94.32,151.80 93.42,148.38 93.42,144.60
             93.42,144.60 93.42,62.84 93.42,62.84
             93.42,59.07 94.32,55.64 96.11,52.56
             97.92,49.47 100.44,46.98 103.70,45.10
             103.70,45.10 175.69,3.70 175.69,3.70
             178.95,1.82 182.38,0.88 185.97,0.88
             189.58,0.88 193.01,1.82 196.26,3.70
             196.26,3.70 268.26,45.10 268.26,45.10
             271.51,46.98 274.04,49.47 275.84,52.56
             277.64,55.64 278.54,59.07 278.54,62.84
             278.54,62.84 278.54,144.60 278.54,144.60
             278.54,148.38 277.64,151.80 275.84,154.89
             274.04,157.97 271.51,160.46 268.26,162.34
             268.26,162.34 196.26,203.74 196.26,203.74
             193.01,205.63 189.58,206.57 185.97,206.57
             182.38,206.57 178.95,205.63 175.69,203.74
             175.69,203.74 103.70,162.34 103.70,162.34 Z
           M 185.97,103.72 185.97,103.72 185.97,103.72 185.97,103.72
           M 185.97,103.72" />
</svg>
